<svg width="336" height="2in" viewBox="0 0 88.9 50.8" xmlns:xlink="http://www.w3.org/1999/xlink" xmlns="http://www.w3.org/2000/svg"><g transform="translate(2.36 7.517)"><rect style="fill:none;stroke:#000;stroke-width:.239602" width="45.02" height="15.643" x="19.58" y="10.061" ry="2.027"/><path style="fill:#000;stroke:#000;stroke-width:.234718" id="a" d="M23.952 6.862c.21 0 .377.183.377.41v1.773c0 .226-.168.408-.377.408-.208 0-.376-.182-.376-.408V7.27c0-.226.168-.409.376-.409z"/><use x="0" y="0" xlink:href="#a" id="b" transform="translate(1.91)" width="100%" height="100%"/><use x="0" y="0" xlink:href="#b" id="c" transform="translate(1.91)" width="100%" height="100%"/><use x="0" y="0" xlink:href="#c" id="d" transform="translate(1.91)" width="100%" height="100%"/><use x="0" y="0" xlink:href="#d" id="e" transform="translate(1.91)" width="100%" height="100%"/><use x="0" y="0" xlink:href="#e" id="f" transform="translate(1.91)" width="100%" height="100%"/><use x="0" y="0" xlink:href="#f" id="g" transform="translate(1.91)" width="100%" height="100%"/><use x="0" y="0" xlink:href="#g" id="h" transform="translate(1.91)" width="100%" height="100%"/><use x="0" y="0" xlink:href="#h" id="i" transform="translate(1.91)" width="100%" height="100%"/><use xlink:href="#i" transform="translate(1.91)" width="100%" height="100%"/><path style="fill:#000;stroke:#000;stroke-width:.234718" d="M43.045 6.862c.209 0 .377.183.377.41v1.773c0 .226-.168.408-.377.408s-.377-.182-.377-.408V7.27c0-.226.168-.409.377-.409z"/><use xlink:href="#a" transform="translate(21.002)" width="100%" height="100%"/><use xlink:href="#b" transform="translate(21.002)" width="100%" height="100%"/><use xlink:href="#c" transform="translate(21.002)" width="100%" height="100%"/><use xlink:href="#d" transform="translate(21.002)" width="100%" height="100%"/><use xlink:href="#e" transform="translate(21.002)" width="100%" height="100%"/><use xlink:href="#f" transform="translate(21.002)" width="100%" height="100%"/><use xlink:href="#g" transform="translate(21.002)" width="100%" height="100%"/><use xlink:href="#h" transform="translate(21.002)" width="100%" height="100%"/><use xlink:href="#i" transform="translate(21.002)" width="100%" height="100%"/><text xml:space="preserve" style="font-style:normal;font-weight:400;font-size:5.31748px;line-height:1.25;font-family:sans-serif;fill:#4d4d4d;fill-opacity:1;stroke:none;stroke-width:.132937" x="34.336" y="19.433"><tspan style="font-style:normal;font-variant:normal;font-weight:400;font-stretch:normal;font-size:5.31748px;font-family:'ProFontWindows Nerd Font Mono';-inkscape-font-specification:'ProFontWindows Nerd Font Mono, Normal';font-variant-ligatures:normal;font-variant-caps:normal;font-variant-numeric:normal;font-variant-east-asian:normal;fill:#4d4d4d;fill-opacity:1;stroke-width:.132937" x="34.336" y="19.433">PP8085</tspan></text><circle style="fill:#4d4d4d;stroke:none;stroke-width:.188041" cx="21.217" cy="11.768" r=".849"/><g transform="translate(.46 19.45)"><path style="fill:#000;stroke:#000;stroke-width:.234718" d="M23.952 6.862c.21 0 .377.183.377.41v1.773c0 .226-.168.408-.377.408-.208 0-.376-.182-.376-.408V7.27c0-.226.168-.409.376-.409z"/><use xlink:href="#a" transform="translate(1.91)" width="100%" height="100%"/><use xlink:href="#b" transform="translate(1.91)" width="100%" height="100%"/><use xlink:href="#c" transform="translate(1.91)" width="100%" height="100%"/><use xlink:href="#d" transform="translate(1.91)" width="100%" height="100%"/><use xlink:href="#e" transform="translate(1.91)" width="100%" height="100%"/><use xlink:href="#f" transform="translate(1.91)" width="100%" height="100%"/><use xlink:href="#g" transform="translate(1.91)" width="100%" height="100%"/><use xlink:href="#h" transform="translate(1.91)" width="100%" height="100%"/><use xlink:href="#i" transform="translate(1.91)" width="100%" height="100%"/><path style="fill:#000;stroke:#000;stroke-width:.234718" d="M43.045 6.862c.209 0 .377.183.377.41v1.773c0 .226-.168.408-.377.408s-.377-.182-.377-.408V7.27c0-.226.168-.409.377-.409z"/><use xlink:href="#a" transform="translate(21.002)" width="100%" height="100%"/><use xlink:href="#b" transform="translate(21.002)" width="100%" height="100%"/><use xlink:href="#c" transform="translate(21.002)" width="100%" height="100%"/><use xlink:href="#d" transform="translate(21.002)" width="100%" height="100%"/><use xlink:href="#e" transform="translate(21.002)" width="100%" height="100%"/><use xlink:href="#f" transform="translate(21.002)" width="100%" height="100%"/><use xlink:href="#g" transform="translate(21.002)" width="100%" height="100%"/><use xlink:href="#h" transform="translate(21.002)" width="100%" height="100%"/><use xlink:href="#i" transform="translate(21.002)" width="100%" height="100%"/></g></g></svg>