<svg width="574.644" height="479.926" viewBox="0 0 152.041 126.98" xmlns="http://www.w3.org/2000/svg"><g style="display:inline"><path style="font-style:normal;font-variant:normal;font-weight:400;font-stretch:normal;font-size:166.222px;line-height:1.25;font-family:'Bebas Neue';-inkscape-font-specification:'Bebas Neue';display:inline;fill:'current';fill-opacity:1;stroke:none;stroke-width:.0990149" d="M-20.57 125.303c-1.622.285-2.927 1.82-2.927 3.443 0 1.622 1.305 2.698 2.928 2.413l1.386-.244 12.718-2.238.156-.031v.004l1.23-.217c1.623-.285 2.929.79 2.929 2.413 0 1.622-1.306 3.158-2.929 3.443l-1.23.217v.052a3.04 3.04 0 0 0-.552.045l-9.55 1.68c-1.622.285-2.928 1.821-2.928 3.443s1.306 2.698 2.928 2.413l9.55-1.68c.189-.034.373-.084.552-.15v.053l.24-.043c1.622-.285 2.928.791 2.928 2.413 0 1.622-1.306 3.158-2.928 3.443l-.24.043-13.864 2.439-4.21.74c-1.622.286-2.928 1.822-2.928 3.444 0 1.622 1.306 2.698 2.929 2.413l4.407-.776 13.666-2.404.438-.077c1.622-.286 2.928.79 2.928 2.412 0 1.623-1.306 3.158-2.928 3.444l-6.602 1.161c-1.429.448-2.522 1.86-2.522 3.344 0 1.622 1.306 2.698 2.928 2.413l5.758-1.013 1.428-.252 5.845-1.028v-16.679l3.439-.605c7.273-1.28 10.844-5.477 10.844-12.032v-4.038c0-6.554-3.57-9.495-10.844-8.216l-10.712 1.885v.004a1.99 1.99 0 0 0-.156.023zm21.534 2.063 3.439-.605c2.314-.407 3.57.308 3.57 3.234v4.857c0 2.926-1.256 4.084-3.57 4.49l-3.439.606zm-33.96 11.836c-1.518.266-2.74 1.703-2.74 3.22 0 1.516 1.222 2.523 2.74 2.256l9.324-1.641c1.517-.267 2.738-1.703 2.738-3.22 0-1.517-1.22-2.523-2.738-2.256zm.98 11.709c-1.517.267-2.738 1.703-2.738 3.22 0 1.517 1.221 2.523 2.738 2.256l.027-.005c1.517-.267 2.738-1.703 2.738-3.22 0-1.517-1.221-2.523-2.738-2.256zm1.085 11.323c-1.622.285-2.928 1.82-2.928 3.443 0 1.622 1.306 2.698 2.928 2.413l10.604-1.866c1.622-.285 2.928-1.82 2.928-3.443 0-1.484-1.094-2.51-2.522-2.456l-.054.01a2.981 2.981 0 0 1-.406.043z" transform="translate(83.307 -80.886)"/><path d="m1.587 162.374 1.291-.228.253-1.78 1.582-.28v-.025l.254 1.715 1.392-.247-1.443-8.605-1.886.334zm1.709-3.24.607-4.486.026-.003.62 4.27zM7.218 161.383l1.392-.247v-3.797l.48-.085c.634-.112.874.11.874.934v1.62c0 .721.051.852.127 1.066l1.418-.251c-.14-.305-.152-.619-.152-1.05v-1.556c0-1-.228-1.618-.924-1.71v-.025c.62-.363.911-.997.911-1.908v-.545c0-1.367-.62-1.928-2.063-1.672l-2.063.366zm1.392-5.31v-2.531l.633-.113c.493-.087.709.153.709.786v.684c0 .709-.317.992-.836 1.084zM13.367 160.297l1.393-.246v-7.595l1.455-.258v-1.266l-4.303.763v1.266l1.455-.258zM16.885 159.68l1.392-.246v-3.988l1.494-.264v3.987l1.392-.247v-8.86l-1.392.247v3.607l-1.494.265v-3.608l-1.392.247z" style="font-style:normal;font-variant:normal;font-weight:400;font-stretch:normal;font-size:33.8241px;line-height:1.25;font-family:'Bebas Neue';-inkscape-font-specification:'Bebas Neue';display:inline;fill:'current';fill-opacity:1;stroke:none;stroke-width:.0990149" transform="translate(83.307 -80.886)"/></g></svg>